<svg width="150" height="150" viewBox="0 0 150 150" fill="none" xmlns="http://www.w3.org/2000/svg">
<rect width="150" height="150" fill="#D01A1A"/>
<path d="M31.4474 113V38.8182H47.1314V71.5263H48.1094L74.8047 38.8182H93.6037L66.0753 72.0334L93.9297 113H75.1669L54.8466 82.5014L47.1314 91.919V113H31.4474ZM102.968 113V57.3636H118.399V113H102.968ZM110.72 50.1918C108.426 50.1918 106.458 49.4311 104.816 47.9098C103.198 46.3643 102.389 44.517 102.389 42.3679C102.389 40.2429 103.198 38.4197 104.816 36.8984C106.458 35.353 108.426 34.5803 110.72 34.5803C113.014 34.5803 114.97 35.353 116.588 36.8984C118.23 38.4197 119.051 40.2429 119.051 42.3679C119.051 44.517 118.23 46.3643 116.588 47.9098C114.97 49.4311 113.014 50.1918 110.72 50.1918Z" fill="white"/>
</svg>
